<svg width="58" height="40" viewBox="0 0 58 40" fill="none" xmlns="http://www.w3.org/2000/svg">
<g id="Group">
<g id="Group_2">
<path id="Vector" d="M56.8591 24.8005C56.5913 24.599 56.3011 24.3976 56.011 24.1961C55.5424 23.8604 55.0514 23.5246 54.6051 23.1665C54.4935 23.077 54.3819 22.8531 54.3596 22.6965C54.3373 20.9058 54.3373 19.0704 54.3373 17.3021C54.3373 16.653 54.3373 16.0039 54.3373 15.3548C54.3373 13.5194 53.3554 12.5569 51.5254 12.5345C50.4319 12.5345 49.3607 12.5345 48.2672 12.5345H45.6339C45.3884 11.281 44.8082 10.7439 43.6701 10.7439C41.8401 10.7215 40.0102 10.7215 38.1356 10.7439C37.6893 10.7439 37.3322 10.8782 37.109 11.1244C36.9082 11.3258 36.7966 11.6168 36.7966 11.9525C36.7966 12.2883 36.9305 13.0941 38.1579 13.0941C39.2737 13.0941 40.3895 13.0941 41.5277 13.0941H43.1568L37.5554 34.0447H25.4599C25.2813 32.4779 24.5003 31.6273 23.8531 31.1797C22.8042 30.4634 21.376 30.3067 19.9923 30.7544C18.3632 31.2692 17.1135 32.3212 16.2655 33.888C16.2209 33.9776 16.1539 34.0447 16.1093 34.0895C15.2613 34.1119 14.4355 34.1119 13.5429 34.1119H13.1635C13.1858 34.0223 13.2081 33.9104 13.2305 33.8209L13.6768 32.1421C13.9892 30.9335 14.324 29.7248 14.6364 28.5161C14.748 28.1132 14.7033 27.7327 14.5248 27.4417C14.3686 27.1955 14.1231 27.0164 13.833 26.9492C13.1635 26.7926 12.6056 27.1507 12.3824 27.9117C12.3155 28.1579 12.2485 28.4042 12.1816 28.6504L11.7576 30.262C11.4228 31.4706 11.1104 32.6793 10.7757 33.888C10.5971 34.6043 10.6864 35.231 11.0211 35.6787C11.3782 36.1487 11.9584 36.3949 12.7172 36.4173C12.918 36.4173 13.0966 36.4173 13.2974 36.4173H13.5652H15.7299V36.4397C15.9307 38.3647 17.0689 39.6181 18.9658 39.9315C19.1889 39.9762 19.4344 39.9986 19.6799 39.9986C21.6438 39.9986 23.7415 38.7228 24.768 36.7978C24.9466 36.4621 25.1028 36.3949 25.4599 36.4173C30.1463 36.4173 34.922 36.4173 39.5192 36.4173H43.4692C43.6031 37.626 44.1164 38.5885 44.9421 39.2376C45.7901 39.8867 46.8836 40.1329 48.0887 39.9315C50.0525 39.6181 51.5477 38.5213 52.552 36.7083C52.6859 36.4621 52.7528 36.4173 52.9983 36.3949C54.5828 36.2159 55.6986 35.3205 56.1449 33.8656C56.7698 31.7392 57.3277 29.5681 57.8633 27.4417C58.1088 26.4121 57.7517 25.472 56.8591 24.8005ZM23.0943 34.6267C22.8935 36.1935 21.2197 37.6932 19.6353 37.7155C19.1443 37.7155 18.7203 37.5812 18.4525 37.2903C18.1847 37.0217 18.0508 36.6635 18.0508 36.2159C18.0508 35.3877 18.5195 34.47 19.3005 33.7985C20.0816 33.127 21.0635 32.7913 21.8892 32.9256C22.7149 33.0375 23.2059 33.7313 23.0943 34.6267ZM50.7667 34.94C50.4319 36.3502 48.9144 37.6036 47.4862 37.6932C46.9059 37.7379 46.415 37.5589 46.1249 37.2007C45.8124 36.8426 45.7232 36.3278 45.8571 35.7458C46.2141 34.2014 47.7763 32.8808 49.2938 32.8808C49.8517 32.8808 50.298 33.0598 50.5658 33.418C50.8336 33.7985 50.9006 34.3357 50.7667 34.94ZM55.1853 26.9492C55.0961 26.9716 55.0068 26.9492 54.8952 26.9492C54.8059 26.9492 54.6944 26.9492 54.6051 26.9492C53.9802 26.994 53.5785 27.3969 53.5339 28.0013C53.4893 28.6504 53.824 29.1204 54.4712 29.2547C54.6274 29.2995 54.7836 29.2995 54.9398 29.2995C54.8729 29.5905 54.7836 29.8814 54.7167 30.1724C54.4489 31.202 54.1811 32.1869 53.9133 33.1718C53.8017 33.5747 53.5562 33.8433 53.1768 33.9999C53.1545 33.8209 53.1322 33.6418 53.0876 33.4627C52.6189 31.3811 50.5881 30.15 48.3342 30.6201C46.415 31.023 44.9644 32.1198 44.0271 33.888C43.9155 34.1119 43.8486 34.1342 43.6477 34.1342C43.0229 34.1342 42.4203 34.1342 41.8178 34.1342H40.7243C40.4788 34.1342 40.2556 34.1342 40.0102 34.1342L40.1217 33.709C40.278 33.1494 40.4119 32.6122 40.5458 32.075C40.6127 31.8064 40.6797 31.5602 40.7466 31.2916C40.9028 30.7768 41.059 30.2172 41.1706 29.68C41.2376 29.3442 41.3045 29.2995 41.6393 29.2995C44.1833 29.3219 46.7497 29.3219 49.2492 29.3219H50.6774C50.9229 29.3219 51.213 29.3219 51.5031 29.2323C52.0387 29.0533 52.3288 28.6056 52.2619 28.0013C52.1949 27.4417 51.8379 27.0835 51.3023 26.994C51.1237 26.9716 50.9675 26.9716 50.8113 26.9716H41.9294C41.9294 26.9492 41.9517 26.9269 41.9517 26.9045L42.7551 23.9051C43.5138 21.0625 44.3172 18.1079 45.076 15.1981C45.1429 14.9519 45.1653 14.9519 45.3884 14.9519C46.7944 14.9743 48.2226 14.9743 49.5839 14.9519C50.2088 14.9519 50.8336 14.9519 51.4585 14.9519C51.7709 14.9519 51.9271 14.9743 51.9718 14.9967C51.9941 15.0414 52.0164 15.2205 52.0164 15.5115V16.183C51.8155 16.183 51.637 16.183 51.4362 16.183C50.6997 16.183 50.0079 16.183 49.2938 16.183H49.0929C48.6466 16.183 48.2003 16.183 47.7763 16.3173C46.5042 16.6754 45.6116 17.5483 45.2322 18.8242C44.9867 19.6523 44.7859 20.5029 44.5627 21.3087L44.5404 21.4206C44.2949 22.3607 44.4288 23.2113 44.8975 23.838C45.3661 24.4647 46.1695 24.8005 47.1514 24.8005C47.7986 24.8005 48.4458 24.8005 49.0929 24.8005C50.1641 24.8005 51.2799 24.8005 52.3958 24.8229C52.6413 24.8229 52.9537 24.9348 53.1768 25.0691C53.9356 25.5615 54.6497 26.0763 55.3192 26.6135C55.3639 26.6583 55.4085 26.7702 55.4531 26.8821C55.3639 26.9045 55.2746 26.9269 55.1853 26.9492ZM51.9941 18.5332V22.4502C51.9494 22.4502 51.8825 22.4502 51.8155 22.4502H51.4808C50.0525 22.4502 48.6243 22.4502 47.196 22.4502C46.839 22.4502 46.772 22.4055 46.772 22.4055C46.772 22.4055 46.7274 22.3159 46.839 21.9578L46.9506 21.5101C47.1068 20.8834 47.2853 20.2343 47.4638 19.5852C47.6647 18.8913 48.111 18.5556 48.8251 18.5332C49.6509 18.5332 50.4766 18.5332 51.2799 18.5332C51.5031 18.5332 51.7486 18.5332 51.9941 18.5332Z" fill="#ECAD48"/>
</g>
<g id="Group_3">
<path id="Vector_2" d="M31.5293 4.02898C28.9406 1.43254 25.5039 1.52588e-05 21.8663 1.52588e-05H21.844C14.3011 0.0223984 8.16406 6.20015 8.16406 13.7657C8.16406 17.4365 9.61463 20.9059 12.2256 23.5023C14.8144 26.0764 18.2064 27.5089 21.8217 27.5089H21.911C29.4539 27.4641 35.5686 21.3088 35.5686 13.788V13.7657C35.5686 10.0948 34.118 6.62543 31.5293 4.02898ZM21.8663 25.1363C18.8313 25.1363 15.9971 23.95 13.8324 21.7788C11.6677 19.6077 10.485 16.7426 10.5073 13.6985C10.5296 7.43122 15.6177 2.35025 21.8663 2.35025H21.8887C24.9014 2.35025 27.7579 3.53655 29.9002 5.70772C32.0426 7.8565 33.2254 10.7215 33.2254 13.7433C33.2031 20.0329 28.1149 25.1363 21.8663 25.1363Z" fill="#ECAD48"/>
</g>
<g id="Group_4">
<path id="Vector_3" d="M11.3995 25.4497C11.3772 26.166 10.8639 26.6136 10.0159 26.6136C8.63229 26.6136 7.22636 26.6136 5.79811 26.6136C4.36986 26.6136 2.94161 26.6136 1.49104 26.6136C0.643016 26.6136 0.129738 26.166 0.107422 25.4497C0.107422 25.1363 0.196688 24.8454 0.397535 24.6439C0.643016 24.3977 1.0224 24.2634 1.51336 24.2634C2.51759 24.2634 3.52183 24.2634 4.52607 24.2634H5.75347H6.93624C7.9628 24.2634 8.96704 24.2634 9.99359 24.2634C10.4846 24.2634 10.8639 24.3977 11.1094 24.6439C11.3103 24.8454 11.3995 25.114 11.3995 25.4497Z" fill="#ECAD48"/>
</g>
<g id="Group_5">
<path id="Vector_4" d="M10.505 29.0087C10.505 29.7249 9.99169 30.1726 9.21062 30.1726C8.38491 30.1726 7.53689 30.1726 6.68886 30.1726C5.86316 30.1726 5.03745 30.1726 4.16711 30.1726C3.7431 30.1726 3.38604 30.0383 3.14055 29.7697C2.93971 29.5459 2.82812 29.2549 2.82812 28.9415C2.85044 28.27 3.38603 27.8224 4.16711 27.8224C4.76965 27.8224 5.39451 27.8224 5.99706 27.8224H6.71118H7.44762C8.02785 27.8224 8.60808 27.8224 9.21062 27.8224C9.99169 27.8447 10.505 28.3148 10.505 29.0087Z" fill="#ECAD48"/>
</g>
<g id="Group_6">
<path id="Vector_5" d="M9.36875 33.3509C9.19022 33.5747 8.94474 33.6866 8.65462 33.7314C8.29756 33.7762 7.91818 33.7762 7.5388 33.7762C7.20406 33.7762 6.84699 33.7538 6.48993 33.7314C6.19982 33.709 5.93202 33.5747 5.75349 33.3509C5.55264 33.1271 5.48569 32.8137 5.50801 32.478C5.57496 31.8512 5.99897 31.4483 6.64614 31.4259C6.86931 31.4259 7.07016 31.4259 7.29332 31.4259H7.56112C7.65038 31.4259 7.76197 31.4259 7.85123 31.4259C8.07439 31.4259 8.29756 31.4259 8.52072 31.4259C9.14558 31.4707 9.54728 31.8512 9.61423 32.4556C9.63654 32.8137 9.54728 33.1271 9.36875 33.3509Z" fill="#ECAD48"/>
</g>
<g id="Group_7">
<path id="Vector_6" d="M21.7553 35.3205C21.7553 35.6339 21.5991 35.9249 21.3536 36.1487C21.1305 36.3501 20.8404 36.4621 20.5726 36.4621C20.5502 36.4621 20.5279 36.4621 20.5056 36.4621C19.8808 36.4173 19.4121 35.9025 19.4121 35.2534C19.4121 34.94 19.546 34.6266 19.7692 34.4252C19.9923 34.2014 20.3048 34.1118 20.6395 34.1118C21.2644 34.1566 21.7776 34.6938 21.7553 35.3205Z" fill="#ECAD48"/>
</g>
<g id="Group_8">
<path id="Vector_7" d="M49.4487 35.3429C49.4264 35.9696 48.8908 36.4621 48.2883 36.4621H48.2659C47.9535 36.4621 47.6634 36.3054 47.4402 36.0592C47.2171 35.813 47.1055 35.4996 47.1278 35.2086C47.1724 34.5819 47.6857 34.1118 48.3329 34.1118C48.6453 34.1118 48.9577 34.2461 49.1586 34.47C49.3594 34.7162 49.471 35.0295 49.4487 35.3429Z" fill="#ECAD48"/>
</g>
<g id="Group_9">
<path id="Vector_8" d="M28.9633 6.67008C28.7402 6.42387 28.4501 6.28957 28.1599 6.28957C27.8252 6.28957 27.4905 6.44625 27.1557 6.75961C25.5712 8.34882 24.2769 9.64704 23.0941 10.8333C22.9602 10.9676 22.9156 10.99 22.7594 10.9229C21.6212 10.5424 20.5947 10.7886 19.7467 11.6391C18.8986 12.4897 18.6532 13.5193 19.0325 14.6609C19.0772 14.8175 19.0772 14.8399 18.9209 14.9966C18.4746 15.4219 18.006 15.8919 17.4927 16.4291C16.9571 16.9887 16.9348 17.6378 17.4034 18.1303C17.6266 18.3541 17.8944 18.4884 18.1845 18.4884H18.2068C18.5416 18.4884 18.854 18.3541 19.1441 18.0855C19.4565 17.7945 19.7913 17.4588 20.1037 17.123L20.126 17.0782C20.617 16.541 20.8178 16.3844 21.2642 16.6306C21.3981 16.6977 21.5543 16.6977 21.6436 16.6977C21.6659 16.6977 21.6882 16.6977 21.6882 16.6977H21.7105C22.6701 16.7201 23.5851 16.2725 24.1653 15.5114C24.7232 14.7728 24.8794 13.8551 24.634 12.9821C24.5447 12.6911 24.5893 12.6016 24.8125 12.3778C26.2184 10.99 27.602 9.60227 28.7625 8.41596C29.3873 7.87877 29.432 7.16251 28.9633 6.67008ZM22.7594 14.6832C22.5362 14.9071 22.2015 15.0414 21.8667 15.0414H21.8221C21.1303 15.019 20.5947 14.4818 20.5724 13.7879C20.5724 13.4522 20.7063 13.1164 20.9517 12.8702C21.1972 12.624 21.532 12.4897 21.8667 12.4897C22.2015 12.4897 22.5362 12.624 22.7594 12.8702C23.0049 13.1164 23.1387 13.4522 23.1387 13.7879C23.1387 14.1237 23.0049 14.437 22.7594 14.6832Z" fill="#ECAD48"/>
</g>
<g id="Group_10">
<path id="Vector_9" d="M23.024 5.23757C23.024 5.57332 23.0017 5.81954 22.9348 6.04337C22.8678 6.2672 22.7786 6.44626 22.6447 6.55818C22.4661 6.73724 22.1983 6.84916 21.8859 6.84916H21.8413C20.7031 6.82678 20.7031 5.64047 20.7031 5.23757C20.7031 4.61085 20.837 4.16318 21.1271 3.89458C21.328 3.69314 21.5958 3.6036 21.9305 3.6036C22.6447 3.62599 23.024 4.18557 23.024 5.23757Z" fill="#ECAD48"/>
</g>
<g id="Group_11">
<path id="Vector_10" d="M14.9701 13.788C14.9478 14.4371 14.5461 14.84 13.8989 14.9072C13.7427 14.9295 13.5642 14.9295 13.3857 14.9295C13.2518 14.9295 13.1179 14.9295 12.9616 14.9295C12.2698 14.9072 11.7789 14.4371 11.7566 13.8104C11.7342 13.1613 12.2475 12.6465 12.9616 12.6017C13.0063 12.6017 13.0286 12.6017 13.0732 12.6017V12.5793H13.408C13.4526 12.5793 13.5196 12.5793 13.5642 12.5793C13.6981 12.5793 13.8543 12.5793 14.0105 12.6017C14.6131 12.736 14.9924 13.1613 14.9701 13.788Z" fill="#ECAD48"/>
</g>
<g id="Group_12">
<path id="Vector_11" d="M31.9732 13.788C31.9509 14.4371 31.5046 14.8848 30.7905 14.9295C30.7012 14.9295 30.6119 14.9295 30.5003 14.9295H30.2772C30.2325 14.9295 30.2102 14.9295 30.1656 14.9295C30.121 14.9295 30.0763 14.9295 30.0317 14.9295C29.2729 14.9071 28.8043 14.4819 28.782 13.8104C28.7597 13.0941 29.2506 12.6241 30.0317 12.5793C30.3218 12.5569 30.5673 12.5793 30.7905 12.5793C31.5046 12.6241 31.9955 13.1165 31.9732 13.788Z" fill="#ECAD48"/>
</g>
<g id="Group_13">
<path id="Vector_12" d="M23.025 22.1594C23.025 22.2042 23.025 22.2713 23.025 22.3161V22.6518C23.025 22.719 23.025 22.7861 23.025 22.8533C22.9581 23.4576 22.5564 23.8605 21.9538 23.8829C21.9315 23.8829 21.8869 23.8829 21.8646 23.8829C21.2843 23.8829 20.8603 23.5248 20.7487 22.9652C20.6818 22.5847 20.6818 22.1594 20.7264 21.7117C20.7934 21.0626 21.329 20.615 21.9761 20.6821C22.601 20.7493 23.0027 21.1522 23.0473 21.8013C23.025 21.9132 23.025 22.0475 23.025 22.1594Z" fill="#ECAD48"/>
</g>
</g>
</svg>
