<svg width="15" height="14" viewBox="0 0 15 14" fill="none" xmlns="http://www.w3.org/2000/svg">
<g id="instagram" clip-path="url(#clip0_1330_26307)">
<g id="Group">
<path id="Vector" d="M5.54173 12.8551C4.73361 12.8551 3.9435 12.5731 3.31735 12.0609C2.49501 11.3883 2.02344 10.3954 2.02344 9.33681C2.02344 8.56574 2.26862 7.83325 2.73233 7.21877C3.18004 6.62562 3.8171 6.1812 4.52624 5.96775C5.16 5.77689 5.82828 6.09389 6.08032 6.70532C6.09656 6.74441 6.11077 6.78502 6.12295 6.82512C6.22169 7.15304 6.18691 7.49974 6.02498 7.80127C5.86305 8.10279 5.59326 8.32335 5.26534 8.42208C4.86584 8.54239 4.5869 8.91853 4.5869 9.33681C4.5869 9.67107 4.76609 9.98554 5.05467 10.1576C5.21407 10.2528 5.39681 10.2987 5.58336 10.2909C6.09554 10.269 6.49681 9.84138 6.49681 9.31701V1.15402C6.49681 0.569242 6.88463 0.0537563 7.43971 -0.0992904C7.50088 -0.116296 7.56383 -0.128478 7.62626 -0.135839C7.74225 -0.149798 7.85977 -0.147514 7.97576 -0.129747C8.41789 -0.064011 8.79886 0.233707 8.97043 0.647415C9.03515 0.803507 9.0679 0.968483 9.0679 1.13777C9.0679 1.8162 9.37627 2.44539 9.91409 2.86393C10.2989 3.16342 10.7598 3.32281 11.2468 3.32459C11.7699 3.32636 12.2377 3.6383 12.4387 4.11926C12.5265 4.32992 12.556 4.5614 12.5235 4.78881C12.4334 5.41648 11.8811 5.88806 11.2375 5.88806C11.2352 5.88806 11.2331 5.88806 11.2309 5.88806C10.4661 5.88425 9.72729 5.69998 9.06028 5.35049V9.3429C9.06028 9.34696 9.06028 9.35102 9.06003 9.35534C9.05419 10.3987 8.58921 11.379 7.78388 12.0462C7.15443 12.5678 6.35824 12.8551 5.54173 12.8551ZM4.89731 6.6741C4.84706 6.6741 4.79604 6.68146 4.74554 6.69669C4.18995 6.86395 3.69071 7.21243 3.33994 7.67741C2.97674 8.15863 2.78486 8.73249 2.78486 9.33681C2.78486 10.166 3.15466 10.9442 3.79959 11.4716C4.2902 11.8729 4.90899 12.0937 5.54173 12.0937C6.18108 12.0937 6.80494 11.8685 7.29784 11.4599C7.93058 10.9355 8.2953 10.1657 8.2986 9.34772C8.2986 9.34493 8.2986 9.34163 8.29886 9.33782V3.9152L8.90444 4.35835C9.58541 4.85683 10.3913 5.12231 11.2347 5.12663H11.2375C11.5047 5.12663 11.7331 4.93551 11.7697 4.68094C11.7829 4.58805 11.7717 4.49795 11.7362 4.41292C11.6547 4.21825 11.4573 4.08678 11.2443 4.08601C10.5872 4.08373 9.96536 3.86875 9.44658 3.46469C8.72221 2.90073 8.30672 2.0525 8.30672 1.13777C8.30672 1.06899 8.29353 1.00199 8.26738 0.939041C8.19759 0.770766 8.04276 0.649699 7.86357 0.623303L7.86028 0.622795C7.81256 0.615435 7.76434 0.61442 7.71662 0.620257C7.692 0.623303 7.66713 0.628125 7.64251 0.634978C7.41586 0.697161 7.25799 0.910614 7.25799 1.15402V9.31701C7.25799 9.76295 7.08997 10.1876 6.78514 10.5127C6.47702 10.8414 6.06153 11.0328 5.61534 11.0515C5.28006 11.0655 4.95137 10.9828 4.66432 10.8114C4.1468 10.5028 3.82523 9.93757 3.82523 9.33681C3.82523 8.58554 4.327 7.90964 5.04554 7.69314C5.17853 7.65304 5.28818 7.56345 5.35391 7.44111C5.41965 7.31878 5.43386 7.17791 5.39376 7.04492C5.38894 7.02867 5.38285 7.01192 5.37625 6.99568C5.29402 6.79618 5.1029 6.6741 4.89731 6.6741ZM9.05977 9.34924V9.35254C9.05977 9.35153 9.05977 9.35026 9.05977 9.34924Z" fill="white"/>
</g>
</g>
<defs>
<clipPath id="clip0_1330_26307">
<rect width="13.2" height="13.2" fill="white" transform="translate(0.923828 0.203003)"/>
</clipPath>
</defs>
</svg>
